<?xml version="1.0" encoding="utf-8"?>
<!-- Generator: Adobe Illustrator 23.0.2, SVG Export Plug-In . SVG Version: 6.00 Build 0)  -->
<svg version="1.1" xmlns="http://www.w3.org/2000/svg" xmlns:xlink="http://www.w3.org/1999/xlink" x="0px" y="0px"
	 viewBox="0 0 501.1 517.7" style="enable-background:new 0 0 501.1 517.7;" xml:space="preserve">
<style type="text/css">
	.st0{display:none;}
	.st1{display:inline;fill:#235598;}
	.st2{display:inline;}
	.st3{fill:none;stroke:#FFFFFF;stroke-width:22;stroke-linecap:round;stroke-linejoin:round;stroke-miterlimit:10;}
	.st4{fill:none;stroke:#FFFFFF;stroke-width:22;stroke-miterlimit:10;}
	.st5{fill:#FFFFFF;}
	.st6{fill:none;stroke:#FFFFFF;stroke-width:14;stroke-linecap:round;stroke-miterlimit:10;}
	.st7{fill:none;stroke:#FFFFFF;stroke-width:12;stroke-linecap:round;stroke-miterlimit:10;}
	.st8{fill:none;stroke:#FFFFFF;stroke-width:32;stroke-linecap:round;stroke-linejoin:round;stroke-miterlimit:10;}
	.st9{fill:none;stroke:#FFFFFF;stroke-width:25;stroke-linecap:round;stroke-linejoin:round;stroke-miterlimit:10;}
	.st10{fill:none;stroke:#FFFFFF;stroke-width:25;stroke-miterlimit:10;}
	.st11{fill:none;stroke:#FFFFFF;stroke-width:20;stroke-linecap:round;stroke-linejoin:round;stroke-miterlimit:10;}
	
		.st12{fill:none;stroke:#FFFFFF;stroke-width:20;stroke-linecap:round;stroke-linejoin:round;stroke-miterlimit:10;stroke-dasharray:22;}
	.st13{fill:none;stroke:#FFFFFF;stroke-width:15;stroke-linecap:round;stroke-linejoin:round;stroke-miterlimit:10;}
	.st14{fill:none;stroke:#FFFFFF;stroke-width:10;stroke-linecap:round;stroke-linejoin:round;stroke-miterlimit:10;}
	.st15{fill:none;stroke:#FFFFFF;stroke-width:30;stroke-linecap:round;stroke-linejoin:round;stroke-miterlimit:10;}
	.st16{fill:none;stroke:#FFFFFF;stroke-width:21;stroke-linecap:round;stroke-linejoin:round;stroke-miterlimit:10;}
	.st17{fill:#235598;stroke:#FFFFFF;stroke-width:21;stroke-miterlimit:10;}
	.st18{fill:#235598;stroke:#FFFFFF;stroke-width:15;stroke-miterlimit:10;}
	.st19{display:inline;fill:none;stroke:#FFFFFF;stroke-width:25;stroke-linejoin:round;stroke-miterlimit:10;}
	.st20{fill:none;stroke:#FFFFFF;stroke-width:11;stroke-linecap:round;stroke-linejoin:round;}
	.st21{display:inline;fill:none;stroke:#FFFFFF;stroke-width:15;stroke-linecap:round;stroke-linejoin:round;stroke-miterlimit:10;}
	.st22{display:inline;fill:none;stroke:#FFFFFF;stroke-width:21;stroke-linecap:round;stroke-linejoin:round;stroke-miterlimit:10;}
	.st23{display:inline;fill:none;stroke:#FFFFFF;stroke-width:25;stroke-linecap:round;stroke-linejoin:round;stroke-miterlimit:10;}
	.st24{display:inline;fill:none;stroke:#FFFFFF;stroke-width:22;stroke-linecap:round;stroke-linejoin:round;stroke-miterlimit:10;}
	.st25{display:inline;fill:none;stroke:#FFFFFF;stroke-width:10;stroke-linecap:round;stroke-linejoin:round;stroke-miterlimit:10;}
	.st26{display:inline;fill:none;stroke:#FFFFFF;stroke-width:20;stroke-linecap:round;stroke-linejoin:round;stroke-miterlimit:10;}
	.st27{fill:none;stroke:#FFFFFF;stroke-width:10;stroke-miterlimit:10;}
	.st28{display:inline;fill:none;stroke:#FFFFFF;stroke-width:19;stroke-linejoin:round;stroke-miterlimit:10;stroke-dasharray:6;}
	.st29{fill:none;stroke:#FFFFFF;stroke-width:19;stroke-linejoin:round;}
	.st30{fill:none;stroke:#FFFFFF;stroke-width:19;stroke-linejoin:round;stroke-dasharray:11.8108,11.8108;}
	.st31{display:inline;fill:none;stroke:#FFFFFF;stroke-width:19;stroke-linejoin:round;stroke-miterlimit:10;stroke-dasharray:14;}
	.st32{display:inline;fill:none;stroke:#FFFFFF;stroke-width:19;stroke-linejoin:round;stroke-miterlimit:10;stroke-dasharray:5;}
	
		.st33{display:inline;fill:#235598;stroke:#FFFFFF;stroke-width:20;stroke-linecap:round;stroke-linejoin:round;stroke-miterlimit:10;}
	
		.st34{display:inline;fill:#235598;stroke:#FFFFFF;stroke-width:17;stroke-linecap:round;stroke-linejoin:round;stroke-miterlimit:10;}
	
		.st35{display:inline;fill:#235598;stroke:#FFFFFF;stroke-width:15;stroke-linecap:round;stroke-linejoin:round;stroke-miterlimit:10;}
	.st36{display:inline;fill:none;stroke:#FFFFFF;stroke-width:18;stroke-linecap:round;stroke-linejoin:round;stroke-miterlimit:10;}
	.st37{display:inline;fill:none;stroke:#FFFFFF;stroke-width:12;stroke-linecap:round;stroke-linejoin:round;stroke-miterlimit:10;}
	.st38{fill:none;stroke:#FFFFFF;stroke-width:16;stroke-linecap:round;stroke-linejoin:round;}
	.st39{fill:none;stroke:#FFFFFF;stroke-width:16;stroke-linecap:round;stroke-linejoin:round;stroke-dasharray:14.5389,14.5389;}
	.st40{fill:none;stroke:#FFFFFF;stroke-width:16;stroke-linecap:round;stroke-linejoin:round;stroke-dasharray:15.3324,15.3324;}
	.st41{fill:none;stroke:#FFFFFF;stroke-width:16;stroke-linecap:round;stroke-linejoin:round;stroke-dasharray:16.55,16.55;}
	.st42{display:inline;fill:none;stroke:#FFFFFF;stroke-width:20;stroke-miterlimit:10;}
	.st43{display:inline;fill:#FFFFFF;}
	.st44{display:inline;fill:none;stroke:#FFFFFF;stroke-width:25;stroke-miterlimit:10;}
	.st45{display:inline;fill:#235598;stroke:#FFFFFF;stroke-width:25;stroke-linejoin:round;stroke-miterlimit:10;}
</style>
<g id="Icono_editable" class="st0">
	<rect x="-1" y="1.5" class="st1" width="501.3" height="520.4"/>
	<circle class="st36" cx="406.7" cy="151.7" r="19"/>
	<circle class="st36" cx="406.7" cy="244.7" r="19"/>
	<circle class="st36" cx="406.7" cy="351.9" r="19"/>
	<rect x="74.9" y="155.5" class="st45" width="277.3" height="192.6"/>
	<polyline class="st19" points="74.9,155.5 213.6,268.7 352.2,155.5 	"/>
	<circle class="st36" cx="406.7" cy="151.7" r="19"/>
	<circle class="st36" cx="406.7" cy="244.7" r="19"/>
	<circle class="st36" cx="406.7" cy="351.9" r="19"/>
	<rect x="74.9" y="155.5" class="st45" width="277.3" height="192.6"/>
	<polyline class="st19" points="74.9,155.5 213.6,268.7 352.2,155.5 	"/>
</g>
<g id="Iconos_terminados">
	<g>
		<path class="st5" d="M406.7,179.8c15.4,0,28-12.6,28-28c0-15.4-12.6-28-28-28c-15.4,0-28,12.6-28,28
			C378.7,167.2,391.3,179.8,406.7,179.8z M406.7,141.7c5.5,0,10,4.5,10,10s-4.5,10-10,10s-10-4.5-10-10S401.2,141.7,406.7,141.7z"/>
		<path class="st5" d="M406.7,216.7c-15.4,0-28,12.6-28,28s12.6,28,28,28c15.4,0,28-12.6,28-28S422.1,216.7,406.7,216.7z
			 M406.7,254.8c-5.5,0-10-4.5-10-10s4.5-10,10-10s10,4.5,10,10S412.2,254.8,406.7,254.8z"/>
		<path class="st5" d="M406.7,323.9c-15.4,0-28,12.6-28,28s12.6,28,28,28c15.4,0,28-12.6,28-28S422.1,323.9,406.7,323.9z
			 M406.7,361.9c-5.5,0-10-4.5-10-10s4.5-10,10-10s10,4.5,10,10S412.2,361.9,406.7,361.9z"/>
		<path class="st5" d="M352.2,143H74.9c-6.9,0-12.5,5.6-12.5,12.5v192.6c0,6.9,5.6,12.5,12.5,12.5h277.3c6.9,0,12.5-5.6,12.5-12.5
			V155.5C364.7,148.6,359.1,143,352.2,143z M317.1,168l-103.6,84.6L110,168H317.1z M339.7,335.6H87.4V181.8l118.2,96.6
			c2.3,1.9,5.1,2.8,7.9,2.8s5.6-0.9,7.9-2.8l118.2-96.6V335.6z"/>
	</g>
</g>
</svg>
