<?xml version="1.0" encoding="utf-8"?>
<!-- Generator: Adobe Illustrator 23.0.2, SVG Export Plug-In . SVG Version: 6.00 Build 0)  -->
<svg version="1.1" xmlns="http://www.w3.org/2000/svg" xmlns:xlink="http://www.w3.org/1999/xlink" x="0px" y="0px"
	 viewBox="0 0 501.1 517.7" style="enable-background:new 0 0 501.1 517.7;" xml:space="preserve">
<style type="text/css">
	.st0{display:none;}
	.st1{display:inline;fill:#235598;}
	.st2{display:inline;}
	.st3{fill:none;stroke:#FFFFFF;stroke-width:22;stroke-linecap:round;stroke-linejoin:round;stroke-miterlimit:10;}
	.st4{fill:none;stroke:#FFFFFF;stroke-width:22;stroke-miterlimit:10;}
	.st5{fill:#FFFFFF;}
	.st6{fill:none;stroke:#FFFFFF;stroke-width:14;stroke-linecap:round;stroke-miterlimit:10;}
	.st7{fill:none;stroke:#FFFFFF;stroke-width:12;stroke-linecap:round;stroke-miterlimit:10;}
	.st8{fill:none;stroke:#FFFFFF;stroke-width:32;stroke-linecap:round;stroke-linejoin:round;stroke-miterlimit:10;}
	.st9{fill:none;stroke:#FFFFFF;stroke-width:25;stroke-linecap:round;stroke-linejoin:round;stroke-miterlimit:10;}
	.st10{fill:none;stroke:#FFFFFF;stroke-width:25;stroke-miterlimit:10;}
	.st11{fill:none;stroke:#FFFFFF;stroke-width:20;stroke-linecap:round;stroke-linejoin:round;stroke-miterlimit:10;}
	
		.st12{fill:none;stroke:#FFFFFF;stroke-width:20;stroke-linecap:round;stroke-linejoin:round;stroke-miterlimit:10;stroke-dasharray:22;}
	.st13{fill:none;stroke:#FFFFFF;stroke-width:15;stroke-linecap:round;stroke-linejoin:round;stroke-miterlimit:10;}
	.st14{fill:none;stroke:#FFFFFF;stroke-width:10;stroke-linecap:round;stroke-linejoin:round;stroke-miterlimit:10;}
	.st15{fill:none;stroke:#FFFFFF;stroke-width:30;stroke-linecap:round;stroke-linejoin:round;stroke-miterlimit:10;}
	.st16{fill:none;stroke:#FFFFFF;stroke-width:21;stroke-linecap:round;stroke-linejoin:round;stroke-miterlimit:10;}
	.st17{fill:#235598;stroke:#FFFFFF;stroke-width:21;stroke-miterlimit:10;}
	.st18{fill:#235598;stroke:#FFFFFF;stroke-width:15;stroke-miterlimit:10;}
	.st19{display:inline;fill:none;stroke:#FFFFFF;stroke-width:25;stroke-linejoin:round;stroke-miterlimit:10;}
	.st20{fill:none;stroke:#FFFFFF;stroke-width:11;stroke-linecap:round;stroke-linejoin:round;}
	.st21{display:inline;fill:none;stroke:#FFFFFF;stroke-width:15;stroke-linecap:round;stroke-linejoin:round;stroke-miterlimit:10;}
	.st22{display:inline;fill:none;stroke:#FFFFFF;stroke-width:21;stroke-linecap:round;stroke-linejoin:round;stroke-miterlimit:10;}
	.st23{display:inline;fill:none;stroke:#FFFFFF;stroke-width:25;stroke-linecap:round;stroke-linejoin:round;stroke-miterlimit:10;}
	.st24{display:inline;fill:none;stroke:#FFFFFF;stroke-width:11;stroke-linecap:round;stroke-linejoin:round;stroke-miterlimit:10;}
	.st25{display:inline;fill:none;stroke:#FFFFFF;stroke-width:20;stroke-linecap:round;stroke-linejoin:round;stroke-miterlimit:10;}
	.st26{display:inline;fill:none;stroke:#FFFFFF;stroke-width:10;stroke-linecap:round;stroke-linejoin:round;stroke-miterlimit:10;}
	.st27{fill:none;stroke:#FFFFFF;stroke-width:10;stroke-miterlimit:10;}
	.st28{display:inline;fill:none;stroke:#FFFFFF;stroke-width:22;stroke-linecap:round;stroke-linejoin:round;stroke-miterlimit:10;}
	.st29{display:inline;fill:none;stroke:#FFFFFF;stroke-width:19;stroke-linejoin:round;stroke-miterlimit:10;stroke-dasharray:6;}
	.st30{fill:none;stroke:#FFFFFF;stroke-width:19;stroke-linejoin:round;}
	.st31{fill:none;stroke:#FFFFFF;stroke-width:19;stroke-linejoin:round;stroke-dasharray:11.8108,11.8108;}
	.st32{display:inline;fill:none;stroke:#FFFFFF;stroke-width:19;stroke-linejoin:round;stroke-miterlimit:10;stroke-dasharray:14;}
	.st33{display:inline;fill:none;stroke:#FFFFFF;stroke-width:19;stroke-linejoin:round;stroke-miterlimit:10;stroke-dasharray:5;}
	
		.st34{display:inline;fill:#235598;stroke:#FFFFFF;stroke-width:20;stroke-linecap:round;stroke-linejoin:round;stroke-miterlimit:10;}
	
		.st35{display:inline;fill:#235598;stroke:#FFFFFF;stroke-width:17;stroke-linecap:round;stroke-linejoin:round;stroke-miterlimit:10;}
	
		.st36{display:inline;fill:#235598;stroke:#FFFFFF;stroke-width:15;stroke-linecap:round;stroke-linejoin:round;stroke-miterlimit:10;}
	.st37{display:inline;fill:none;stroke:#FFFFFF;stroke-width:18;stroke-linecap:round;stroke-linejoin:round;stroke-miterlimit:10;}
	.st38{display:inline;fill:none;stroke:#FFFFFF;stroke-width:12;stroke-linecap:round;stroke-linejoin:round;stroke-miterlimit:10;}
	.st39{fill:none;stroke:#FFFFFF;stroke-width:16;stroke-linecap:round;stroke-linejoin:round;}
	.st40{fill:none;stroke:#FFFFFF;stroke-width:16;stroke-linecap:round;stroke-linejoin:round;stroke-dasharray:14.5389,14.5389;}
	.st41{fill:none;stroke:#FFFFFF;stroke-width:16;stroke-linecap:round;stroke-linejoin:round;stroke-dasharray:15.3324,15.3324;}
	.st42{fill:none;stroke:#FFFFFF;stroke-width:16;stroke-linecap:round;stroke-linejoin:round;stroke-dasharray:16.55,16.55;}
</style>
<g id="Icono_editable" class="st0">
	<rect class="st1" width="501.1" height="517.7"/>
	<g class="st2">
		<path class="st9" d="M389.9,411.5H157.4c-15.9,0-29-13.1-29-29V171.1c0-15.9,13.1-29,29-29h232.5c16,0,29,13.1,29,29v211.4
			C418.9,398.5,405.8,411.5,389.9,411.5z"/>
		<line class="st12" x1="172.8" y1="271" x2="377.5" y2="271"/>
		<line class="st12" x1="172.8" y1="309.7" x2="377.5" y2="309.7"/>
		<line class="st12" x1="172.8" y1="348.5" x2="377.5" y2="348.5"/>
		<path class="st13" d="M311.7,210.1c-0.5,18.3-15.4,33-33.9,33c-18.7,0-33.9-15.2-33.9-33.9c0-18.7,15.1-33.8,33.7-33.9"/>
		<line class="st14" x1="278.2" y1="209.9" x2="278.2" y2="188.6"/>
		<line class="st14" x1="292" y1="209.8" x2="278.6" y2="209.8"/>
		<line class="st15" x1="223.1" y1="127.8" x2="223.1" y2="151.7"/>
		<line class="st15" x1="335" y1="127.8" x2="335" y2="151.7"/>
	</g>
</g>
<g id="Iconos_terminados">
	<g>
		<path class="st5" d="M389.9,129.6H350v-1.8c0-8.3-6.7-15-15-15s-15,6.7-15,15v1.8h-81.8v-1.8c0-8.3-6.7-15-15-15s-15,6.7-15,15
			v1.8h-50.8c-22.9,0-41.5,18.6-41.5,41.5v211.4c0,22.9,18.6,41.5,41.5,41.5h232.5c22.9,0,41.5-18.6,41.5-41.5V171.1
			C431.4,148.2,412.8,129.6,389.9,129.6z M406.4,382.5c0,9.1-7.4,16.5-16.5,16.5H157.4c-9.1,0-16.5-7.4-16.5-16.5V171.1
			c0-9.1,7.4-16.5,16.5-16.5h51.1c1.4,6.9,7.4,12.1,14.7,12.1s13.3-5.2,14.7-12.1h82.4c1.4,6.9,7.4,12.1,14.7,12.1
			s13.3-5.2,14.7-12.1h40.2c9.1,0,16.5,7.4,16.5,16.5V382.5z"/>
		<path class="st5" d="M194.8,261h-22c-5.5,0-10,4.5-10,10s4.5,10,10,10h22c5.5,0,10-4.5,10-10S200.3,261,194.8,261z"/>
		<path class="st5" d="M282.8,261h-22c-5.5,0-10,4.5-10,10s4.5,10,10,10h22c5.5,0,10-4.5,10-10S288.3,261,282.8,261z"/>
		<path class="st5" d="M238.8,261h-22c-5.5,0-10,4.5-10,10s4.5,10,10,10h22c5.5,0,10-4.5,10-10S244.3,261,238.8,261z"/>
		<path class="st5" d="M370.8,261h-22c-5.5,0-10,4.5-10,10s4.5,10,10,10h22c5.5,0,10-4.5,10-10S376.3,261,370.8,261z"/>
		<path class="st5" d="M326.8,261h-22c-5.5,0-10,4.5-10,10s4.5,10,10,10h22c5.5,0,10-4.5,10-10S332.3,261,326.8,261z"/>
		<path class="st5" d="M238.8,299.7h-22c-5.5,0-10,4.5-10,10s4.5,10,10,10h22c5.5,0,10-4.5,10-10S244.3,299.7,238.8,299.7z"/>
		<path class="st5" d="M326.8,299.7h-22c-5.5,0-10,4.5-10,10s4.5,10,10,10h22c5.5,0,10-4.5,10-10S332.3,299.7,326.8,299.7z"/>
		<path class="st5" d="M370.8,299.7h-22c-5.5,0-10,4.5-10,10s4.5,10,10,10h22c5.5,0,10-4.5,10-10S376.3,299.7,370.8,299.7z"/>
		<path class="st5" d="M194.8,299.7h-22c-5.5,0-10,4.5-10,10s4.5,10,10,10h22c5.5,0,10-4.5,10-10S200.3,299.7,194.8,299.7z"/>
		<path class="st5" d="M282.8,299.7h-22c-5.5,0-10,4.5-10,10s4.5,10,10,10h22c5.5,0,10-4.5,10-10S288.3,299.7,282.8,299.7z"/>
		<path class="st5" d="M194.8,338.5h-22c-5.5,0-10,4.5-10,10s4.5,10,10,10h22c5.5,0,10-4.5,10-10S200.3,338.5,194.8,338.5z"/>
		<path class="st5" d="M238.8,338.5h-22c-5.5,0-10,4.5-10,10s4.5,10,10,10h22c5.5,0,10-4.5,10-10S244.3,338.5,238.8,338.5z"/>
		<path class="st5" d="M370.8,338.5h-22c-5.5,0-10,4.5-10,10s4.5,10,10,10h22c5.5,0,10-4.5,10-10S376.3,338.5,370.8,338.5z"/>
		<path class="st5" d="M326.8,338.5h-22c-5.5,0-10,4.5-10,10s4.5,10,10,10h22c5.5,0,10-4.5,10-10S332.3,338.5,326.8,338.5z"/>
		<path class="st5" d="M282.8,338.5h-22c-5.5,0-10,4.5-10,10s4.5,10,10,10h22c5.5,0,10-4.5,10-10S288.3,338.5,282.8,338.5z"/>
		<path class="st5" d="M277.9,250.6c22.6,0,40.8-17.7,41.4-40.3c0.1-4.1-3.2-7.6-7.3-7.7c-4.1-0.1-7.6,3.2-7.7,7.3
			c-0.4,14.2-12.2,25.7-26.4,25.7c-14.5,0-26.4-11.8-26.4-26.4c0-14.5,11.8-26.3,26.3-26.4c4.1,0,7.5-3.4,7.5-7.5
			c0-4.1-3.4-7.5-7.5-7.5c0,0,0,0,0,0c-22.7,0.1-41.2,18.6-41.2,41.4C236.5,232,255,250.6,277.9,250.6z"/>
		<path class="st5" d="M283.2,188.6c0-2.8-2.2-5-5-5s-5,2.2-5,5v21.3c0,2.8,2.2,5,5,5c0.3,0,0.6,0,0.9-0.1H292c2.8,0,5-2.2,5-5
			s-2.2-5-5-5h-8.8V188.6z"/>
	</g>
</g>
</svg>
