<?xml version="1.0" encoding="utf-8"?>
<!-- Generator: Adobe Illustrator 23.0.2, SVG Export Plug-In . SVG Version: 6.00 Build 0)  -->
<svg version="1.1" xmlns="http://www.w3.org/2000/svg" xmlns:xlink="http://www.w3.org/1999/xlink" x="0px" y="0px"
	 viewBox="0 0 501.1 517.7" style="enable-background:new 0 0 501.1 517.7;" xml:space="preserve">
<style type="text/css">
	.st0{display:none;}
	.st1{display:inline;fill:#235598;}
	.st2{display:inline;}
	.st3{fill:none;stroke:#FFFFFF;stroke-width:22;stroke-linecap:round;stroke-linejoin:round;stroke-miterlimit:10;}
	.st4{fill:none;stroke:#FFFFFF;stroke-width:22;stroke-miterlimit:10;}
	.st5{fill:#FFFFFF;}
	.st6{fill:none;stroke:#FFFFFF;stroke-width:14;stroke-linecap:round;stroke-miterlimit:10;}
	.st7{fill:none;stroke:#FFFFFF;stroke-width:12;stroke-linecap:round;stroke-miterlimit:10;}
	.st8{fill:none;stroke:#FFFFFF;stroke-width:32;stroke-linecap:round;stroke-linejoin:round;stroke-miterlimit:10;}
	.st9{fill:none;stroke:#FFFFFF;stroke-width:25;stroke-linecap:round;stroke-linejoin:round;stroke-miterlimit:10;}
	.st10{fill:none;stroke:#FFFFFF;stroke-width:25;stroke-miterlimit:10;}
	.st11{fill:none;stroke:#FFFFFF;stroke-width:20;stroke-linecap:round;stroke-linejoin:round;stroke-miterlimit:10;}
	
		.st12{fill:none;stroke:#FFFFFF;stroke-width:20;stroke-linecap:round;stroke-linejoin:round;stroke-miterlimit:10;stroke-dasharray:22;}
	.st13{fill:none;stroke:#FFFFFF;stroke-width:15;stroke-linecap:round;stroke-linejoin:round;stroke-miterlimit:10;}
	.st14{fill:none;stroke:#FFFFFF;stroke-width:10;stroke-linecap:round;stroke-linejoin:round;stroke-miterlimit:10;}
	.st15{fill:none;stroke:#FFFFFF;stroke-width:30;stroke-linecap:round;stroke-linejoin:round;stroke-miterlimit:10;}
	
		.st16{fill:none;stroke:#FFFFFF;stroke-width:26;stroke-linecap:round;stroke-linejoin:round;stroke-miterlimit:10;stroke-dasharray:30;}
	.st17{fill:none;stroke:#FFFFFF;stroke-width:21;stroke-linecap:round;stroke-linejoin:round;stroke-miterlimit:10;}
	.st18{fill:#235598;stroke:#FFFFFF;stroke-width:21;stroke-miterlimit:10;}
	.st19{fill:#235598;stroke:#FFFFFF;stroke-width:15;stroke-miterlimit:10;}
	.st20{display:inline;fill:none;stroke:#FFFFFF;stroke-width:25;stroke-linejoin:round;stroke-miterlimit:10;}
	.st21{fill:none;stroke:#FFFFFF;stroke-width:11;stroke-linecap:round;stroke-linejoin:round;}
	.st22{display:inline;fill:none;stroke:#FFFFFF;stroke-width:15;stroke-linecap:round;stroke-linejoin:round;stroke-miterlimit:10;}
	.st23{display:inline;fill:none;stroke:#FFFFFF;stroke-width:21;stroke-linecap:round;stroke-linejoin:round;stroke-miterlimit:10;}
	.st24{display:inline;fill:none;stroke:#FFFFFF;stroke-width:25;stroke-linecap:round;stroke-linejoin:round;stroke-miterlimit:10;}
	.st25{display:inline;fill:none;stroke:#FFFFFF;stroke-width:11;stroke-linecap:round;stroke-linejoin:round;stroke-miterlimit:10;}
	.st26{display:inline;fill:none;stroke:#FFFFFF;stroke-width:20;stroke-linecap:round;stroke-linejoin:round;stroke-miterlimit:10;}
	.st27{display:inline;fill:none;stroke:#FFFFFF;stroke-width:10;stroke-linecap:round;stroke-linejoin:round;stroke-miterlimit:10;}
	.st28{fill:none;stroke:#FFFFFF;stroke-width:10;stroke-miterlimit:10;}
	.st29{display:inline;fill:none;stroke:#FFFFFF;stroke-width:22;stroke-linecap:round;stroke-linejoin:round;stroke-miterlimit:10;}
	.st30{display:inline;fill:none;stroke:#FFFFFF;stroke-width:19;stroke-linejoin:round;stroke-miterlimit:10;stroke-dasharray:6;}
	.st31{fill:none;stroke:#FFFFFF;stroke-width:19;stroke-linejoin:round;}
	.st32{fill:none;stroke:#FFFFFF;stroke-width:19;stroke-linejoin:round;stroke-dasharray:11.8108,11.8108;}
	.st33{display:inline;fill:none;stroke:#FFFFFF;stroke-width:19;stroke-linejoin:round;stroke-miterlimit:10;stroke-dasharray:14;}
	.st34{display:inline;fill:none;stroke:#FFFFFF;stroke-width:19;stroke-linejoin:round;stroke-miterlimit:10;stroke-dasharray:5;}
	
		.st35{display:inline;fill:#235598;stroke:#FFFFFF;stroke-width:20;stroke-linecap:round;stroke-linejoin:round;stroke-miterlimit:10;}
	
		.st36{display:inline;fill:#235598;stroke:#FFFFFF;stroke-width:17;stroke-linecap:round;stroke-linejoin:round;stroke-miterlimit:10;}
	
		.st37{display:inline;fill:#235598;stroke:#FFFFFF;stroke-width:15;stroke-linecap:round;stroke-linejoin:round;stroke-miterlimit:10;}
	.st38{display:inline;fill:none;stroke:#FFFFFF;stroke-width:18;stroke-linecap:round;stroke-linejoin:round;stroke-miterlimit:10;}
	.st39{display:inline;fill:none;stroke:#FFFFFF;stroke-width:12;stroke-linecap:round;stroke-linejoin:round;stroke-miterlimit:10;}
	.st40{fill:none;stroke:#FFFFFF;stroke-width:16;stroke-linecap:round;stroke-linejoin:round;}
	.st41{fill:none;stroke:#FFFFFF;stroke-width:16;stroke-linecap:round;stroke-linejoin:round;stroke-dasharray:14.5389,14.5389;}
	.st42{fill:none;stroke:#FFFFFF;stroke-width:16;stroke-linecap:round;stroke-linejoin:round;stroke-dasharray:15.3324,15.3324;}
	.st43{fill:none;stroke:#FFFFFF;stroke-width:16;stroke-linecap:round;stroke-linejoin:round;stroke-dasharray:16.55,16.55;}
</style>
<g id="Icono_editable" class="st0">
	<rect x="0" y="1.3" class="st1" width="501.1" height="517.7"/>
	<g class="st2">
		<path class="st9" d="M389.9,349.5H157.4c-15.9,0-29-13-29-29V145.4c0-15.9,13.1-29,29-29h232.5c16,0,29,13.1,29,29v175.1
			C418.9,336.5,405.8,349.5,389.9,349.5z"/>
		<line class="st16" x1="239.5" y1="236.8" x2="377.5" y2="236.8"/>
		<line class="st16" x1="172.8" y1="289.3" x2="377.5" y2="289.3"/>
		<line class="st15" x1="223.1" y1="102.2" x2="223.1" y2="126"/>
		<line class="st15" x1="335" y1="102.2" x2="335" y2="126"/>
		<line class="st17" x1="261.4" y1="405.4" x2="394.7" y2="405.4"/>
		<line class="st17" x1="353.6" y1="436.8" x2="394.7" y2="405.7"/>
		<line class="st17" x1="353.6" y1="376.3" x2="394.7" y2="405.4"/>
	</g>
</g>
<g id="Iconos_terminados">
	<g>
		<path class="st5" d="M389.9,103.9H350v-1.8c0-8.3-6.7-15-15-15s-15,6.7-15,15v1.8h-81.8v-1.8c0-8.3-6.7-15-15-15s-15,6.7-15,15
			v1.8h-50.8c-22.9,0-41.5,18.6-41.5,41.5v175.1c0,22.9,18.6,41.5,41.5,41.5h232.5c22.9,0,41.5-18.6,41.5-41.5V145.4
			C431.4,122.6,412.8,103.9,389.9,103.9z M406.4,320.5c0,9.1-7.4,16.5-16.5,16.5H157.4c-9.1,0-16.5-7.4-16.5-16.5V145.4
			c0-9.1,7.4-16.5,16.5-16.5h51.1c1.4,6.9,7.4,12.1,14.7,12.1s13.3-5.2,14.7-12.1h82.4c1.4,6.9,7.4,12.1,14.7,12.1
			s13.3-5.2,14.7-12.1h40.2c9.1,0,16.5,7.4,16.5,16.5V320.5z"/>
		<path class="st5" d="M329.5,223.8h-30c-7.2,0-13,5.8-13,13s5.8,13,13,13h30c7.2,0,13-5.8,13-13S336.7,223.8,329.5,223.8z"/>
		<path class="st5" d="M269.5,223.8h-30c-7.2,0-13,5.8-13,13s5.8,13,13,13h30c7.2,0,13-5.8,13-13S276.7,223.8,269.5,223.8z"/>
		<path class="st5" d="M377.5,223.8h-18c-7.2,0-13,5.8-13,13s5.8,13,13,13h18c7.2,0,13-5.8,13-13S384.7,223.8,377.5,223.8z"/>
		<path class="st5" d="M322.8,276.3h-30c-7.2,0-13,5.8-13,13s5.8,13,13,13h30c7.2,0,13-5.8,13-13S329.9,276.3,322.8,276.3z"/>
		<path class="st5" d="M202.8,276.3h-30c-7.2,0-13,5.8-13,13s5.8,13,13,13h30c7.2,0,13-5.8,13-13S209.9,276.3,202.8,276.3z"/>
		<path class="st5" d="M262.8,276.3h-30c-7.2,0-13,5.8-13,13s5.8,13,13,13h30c7.2,0,13-5.8,13-13S269.9,276.3,262.8,276.3z"/>
		<path class="st5" d="M377.5,276.3h-24.7c-7.2,0-13,5.8-13,13s5.8,13,13,13h24.7c7.2,0,13-5.8,13-13S384.7,276.3,377.5,276.3z"/>
		<path class="st5" d="M405.2,405.1c0-0.2,0-0.4,0-0.6c0-0.2,0-0.3-0.1-0.5c0-0.2,0-0.3-0.1-0.5c0-0.2-0.1-0.4-0.1-0.6
			c0-0.1-0.1-0.3-0.1-0.4c-0.1-0.2-0.1-0.4-0.2-0.6c0-0.1-0.1-0.3-0.2-0.4c-0.1-0.2-0.1-0.3-0.2-0.5c-0.1-0.1-0.1-0.3-0.2-0.4
			c-0.1-0.1-0.2-0.3-0.2-0.4c-0.1-0.2-0.2-0.3-0.3-0.5c-0.1-0.1-0.2-0.2-0.3-0.4c-0.1-0.2-0.2-0.3-0.3-0.5c-0.1-0.1-0.2-0.2-0.3-0.3
			c-0.1-0.1-0.3-0.3-0.4-0.4c-0.1-0.1-0.2-0.2-0.4-0.3c-0.1-0.1-0.3-0.2-0.4-0.3c-0.1-0.1-0.3-0.2-0.5-0.4c-0.1-0.1-0.2-0.1-0.3-0.2
			l-41.1-29.1c-4.7-3.4-11.3-2.2-14.6,2.5s-2.2,11.3,2.5,14.6l14.2,10.1H261.4c-5.8,0-10.5,4.7-10.5,10.5s4.7,10.5,10.5,10.5h102.3
			l-16.5,12.5c-4.6,3.5-5.5,10.1-2,14.7c2.1,2.7,5.2,4.2,8.4,4.2c2.2,0,4.4-0.7,6.3-2.1l41.1-31.1c2.7-2,4.1-5.1,4.2-8.3
			c0-0.1,0-0.2,0-0.3c0,0,0-0.1,0-0.1C405.2,405.3,405.2,405.2,405.2,405.1z"/>
	</g>
</g>
</svg>
