<?xml version="1.0" encoding="utf-8"?>
<!-- Generator: Adobe Illustrator 23.0.2, SVG Export Plug-In . SVG Version: 6.00 Build 0)  -->
<svg version="1.1" xmlns="http://www.w3.org/2000/svg" xmlns:xlink="http://www.w3.org/1999/xlink" x="0px" y="0px"
	 viewBox="0 0 501.1 517.7" style="enable-background:new 0 0 501.1 517.7;" xml:space="preserve">
<style type="text/css">
	.st0{display:none;}
	.st1{display:inline;fill:#235598;}
	.st2{display:inline;}
	.st3{fill:none;stroke:#FFFFFF;stroke-width:22;stroke-linecap:round;stroke-linejoin:round;stroke-miterlimit:10;}
	.st4{fill:none;stroke:#FFFFFF;stroke-width:22;stroke-miterlimit:10;}
	.st5{fill:#FFFFFF;}
	.st6{fill:none;stroke:#FFFFFF;stroke-width:14;stroke-linecap:round;stroke-miterlimit:10;}
	.st7{fill:none;stroke:#FFFFFF;stroke-width:12;stroke-linecap:round;stroke-miterlimit:10;}
	.st8{fill:none;stroke:#FFFFFF;stroke-width:32;stroke-linecap:round;stroke-linejoin:round;stroke-miterlimit:10;}
	.st9{fill:none;stroke:#FFFFFF;stroke-width:25;stroke-linecap:round;stroke-linejoin:round;stroke-miterlimit:10;}
	.st10{fill:none;stroke:#FFFFFF;stroke-width:25;stroke-miterlimit:10;}
	.st11{fill:none;stroke:#FFFFFF;stroke-width:20;stroke-linecap:round;stroke-linejoin:round;stroke-miterlimit:10;}
	
		.st12{fill:none;stroke:#FFFFFF;stroke-width:20;stroke-linecap:round;stroke-linejoin:round;stroke-miterlimit:10;stroke-dasharray:22;}
	.st13{fill:none;stroke:#FFFFFF;stroke-width:15;stroke-linecap:round;stroke-linejoin:round;stroke-miterlimit:10;}
	.st14{fill:none;stroke:#FFFFFF;stroke-width:10;stroke-linecap:round;stroke-linejoin:round;stroke-miterlimit:10;}
	.st15{fill:none;stroke:#FFFFFF;stroke-width:30;stroke-linecap:round;stroke-linejoin:round;stroke-miterlimit:10;}
	.st16{fill:none;stroke:#FFFFFF;stroke-width:21;stroke-linecap:round;stroke-linejoin:round;stroke-miterlimit:10;}
	.st17{fill:#235598;stroke:#FFFFFF;stroke-width:21;stroke-miterlimit:10;}
	.st18{fill:#235598;stroke:#FFFFFF;stroke-width:15;stroke-miterlimit:10;}
	.st19{display:inline;fill:none;stroke:#FFFFFF;stroke-width:25;stroke-linejoin:round;stroke-miterlimit:10;}
	.st20{fill:none;stroke:#FFFFFF;stroke-width:11;stroke-linecap:round;stroke-linejoin:round;}
	.st21{display:inline;fill:none;stroke:#FFFFFF;stroke-width:15;stroke-linecap:round;stroke-linejoin:round;stroke-miterlimit:10;}
	.st22{display:inline;fill:none;stroke:#FFFFFF;stroke-width:21;stroke-linecap:round;stroke-linejoin:round;stroke-miterlimit:10;}
	.st23{display:inline;fill:none;stroke:#FFFFFF;stroke-width:25;stroke-linecap:round;stroke-linejoin:round;stroke-miterlimit:10;}
	.st24{display:inline;fill:none;stroke:#FFFFFF;stroke-width:11;stroke-linecap:round;stroke-linejoin:round;stroke-miterlimit:10;}
	.st25{display:inline;fill:none;stroke:#FFFFFF;stroke-width:20;stroke-linecap:round;stroke-linejoin:round;stroke-miterlimit:10;}
	.st26{display:inline;fill:none;stroke:#FFFFFF;stroke-width:10;stroke-linecap:round;stroke-linejoin:round;stroke-miterlimit:10;}
	.st27{fill:none;stroke:#FFFFFF;stroke-width:10;stroke-miterlimit:10;}
	.st28{display:inline;fill:none;stroke:#FFFFFF;stroke-width:22;stroke-linecap:round;stroke-linejoin:round;stroke-miterlimit:10;}
	.st29{display:inline;fill:none;stroke:#FFFFFF;stroke-width:19;stroke-linejoin:round;stroke-miterlimit:10;stroke-dasharray:6;}
	.st30{fill:none;stroke:#FFFFFF;stroke-width:19;stroke-linejoin:round;}
	.st31{fill:none;stroke:#FFFFFF;stroke-width:19;stroke-linejoin:round;stroke-dasharray:11.8108,11.8108;}
	.st32{display:inline;fill:none;stroke:#FFFFFF;stroke-width:19;stroke-linejoin:round;stroke-miterlimit:10;stroke-dasharray:14;}
	.st33{display:inline;fill:none;stroke:#FFFFFF;stroke-width:19;stroke-linejoin:round;stroke-miterlimit:10;stroke-dasharray:5;}
	
		.st34{display:inline;fill:#235598;stroke:#FFFFFF;stroke-width:20;stroke-linecap:round;stroke-linejoin:round;stroke-miterlimit:10;}
	
		.st35{display:inline;fill:#235598;stroke:#FFFFFF;stroke-width:17;stroke-linecap:round;stroke-linejoin:round;stroke-miterlimit:10;}
	
		.st36{display:inline;fill:#235598;stroke:#FFFFFF;stroke-width:15;stroke-linecap:round;stroke-linejoin:round;stroke-miterlimit:10;}
	.st37{display:inline;fill:none;stroke:#FFFFFF;stroke-width:18;stroke-linecap:round;stroke-linejoin:round;stroke-miterlimit:10;}
	.st38{display:inline;fill:none;stroke:#FFFFFF;stroke-width:12;stroke-linecap:round;stroke-linejoin:round;stroke-miterlimit:10;}
	.st39{fill:none;stroke:#FFFFFF;stroke-width:16;stroke-linecap:round;stroke-linejoin:round;}
	.st40{fill:none;stroke:#FFFFFF;stroke-width:16;stroke-linecap:round;stroke-linejoin:round;stroke-dasharray:14.5389,14.5389;}
	.st41{fill:none;stroke:#FFFFFF;stroke-width:16;stroke-linecap:round;stroke-linejoin:round;stroke-dasharray:15.3324,15.3324;}
	.st42{fill:none;stroke:#FFFFFF;stroke-width:16;stroke-linecap:round;stroke-linejoin:round;stroke-dasharray:16.55,16.55;}
</style>
<g id="Icono_editable" class="st0">
	<rect class="st1" width="501.1" height="517.7"/>
	<g class="st2">
		<path class="st9" d="M370,353.6H132c-5.6,0-9-6.3-5.8-11c0,0,34.1-40.7,39.3-57.3c5.7-18.5,0-77.6,0-77.6
			c0-47.1,38.2-85.3,85.3-85.3h0c47.1,0,85.3,38.2,85.3,85.3c0,0-5.3,56.5,0,74.3c5.2,17.4,39.7,60.6,39.7,60.6
			C378.9,347.4,375.5,353.6,370,353.6z"/>
		<path class="st9" d="M285.5,388.6c0,15.9-12.9,28.8-28.9,28.8c-15.9,0-28.8-12.9-28.9-28.8"/>
	</g>
</g>
<g id="Iconos_terminados">
	<g>
		<g>
			<path class="st5" d="M370,366.1H132c-7.3,0-13.9-4-17.3-10.4s-2.9-14.1,1.2-20.1c0.2-0.3,0.5-0.7,0.7-1
				c13.5-16.1,33.9-43.2,36.9-52.9c3.6-11.7,1.6-50.8-0.5-72.6c0-0.4-0.1-0.8-0.1-1.2c0-53.9,43.9-97.8,97.8-97.8
				s97.8,43.9,97.8,97.8c0,0.4,0,0.8-0.1,1.2c-2,20.9-3.8,58.3-0.5,69.6c3.3,10.9,24.7,40.4,37.5,56.4c0.2,0.3,0.5,0.6,0.7,0.9
				c3.9,6,4.3,13.6,0.8,20C383.7,362.2,377.1,366.1,370,366.1z M143.6,341.1h215.1c-11.2-14.7-30.2-40.9-34.5-55.4
				c-5.6-18.8-1.6-67.3-0.5-78.4c-0.3-39.9-32.9-72.3-72.8-72.3c-40,0-72.5,32.4-72.8,72.3c1.1,11.6,5.5,62.3-0.6,81.8
				C173.1,302.8,154.8,327.1,143.6,341.1z"/>
		</g>
		<g>
			<path class="st5" d="M256.7,429.9c-22.7,0-41.3-18.5-41.4-41.2c0-6.9,5.6-12.5,12.5-12.5c0,0,0,0,0,0c6.9,0,12.5,5.6,12.5,12.5
				c0,9,7.4,16.3,16.4,16.3c9,0,16.3-7.3,16.4-16.3c0-6.9,5.6-12.5,12.5-12.5c0,0,0,0,0,0c6.9,0,12.5,5.6,12.5,12.5
				C298,411.4,279.4,429.9,256.7,429.9z"/>
		</g>
	</g>
</g>
</svg>
