<svg xmlns="http://www.w3.org/2000/svg" width="101.02mm" height="101.02mm" viewBox="0 0 286.35 286.35"><defs><style>.a{fill:#fff;}</style></defs><title>ConfiguracionIcono_</title><path class="a" d="M38,286.35A38,38,0,0,1,11.1,221.51L141.83,90.78A71.42,71.42,0,0,1,160,18.92C175.89,3,196.32-3.18,217.5,1.56a10,10,0,0,1,4.88,16.83L195,45.79l9.63,35.95,35.95,9.63L268,64a10,10,0,0,1,16.83,4.88c4.74,21.18-1.42,41.61-17.36,57.55a71.4,71.4,0,0,1-71.86,18.12L64.84,275.25A37.73,37.73,0,0,1,38,286.35Zm152.13-264a45.27,45.27,0,0,0-16,10.69c-15,15-19.4,36.71-11.47,56.66a10,10,0,0,1-2.22,10.76L25.24,235.66a18,18,0,0,0,25.45,25.45L185.86,126a10,10,0,0,1,10.76-2.22c19.95,7.93,41.66,3.53,56.66-11.47a45.18,45.18,0,0,0,10.69-16L250.62,109.6a10,10,0,0,1-9.66,2.59l-47.1-12.63a10,10,0,0,1-7.07-7.07l-12.62-47.1a10,10,0,0,1,2.58-9.66Z"/></svg>