<svg xmlns="http://www.w3.org/2000/svg" width="215.9mm" height="279.4mm" viewBox="0 0 612 792"><defs><style>.a{fill:#002a67;}.b{fill:#c12f38;}.c{fill:#a41b1d;}.d{fill:#0b5894;}.e{fill:#002460;}.f{fill:#115493;}.g{fill:#ab1d1c;}</style></defs><title>Logo Tudojang</title><path class="a" d="M202.39,384.17c6.05-4.73,16.54-8.42,16.54-8.42l16-6.23,3.76-10.22-11.27-15.47-11.19.3-.45,3.53-2.1.3-3.86,5.47,4.42,6.24-10.33,6.69Z"/><path class="a" d="M368.34,241.52l4.48-.25,14.95-5.76a5.34,5.34,0,0,1,4.76.45l19.66,12.29-1.25,1.25-4.73,1.74L390,250s-3.73,7.23-11.46,7.48-8.22-7-11.46-8.22S368.34,241.52,368.34,241.52Z"/><path class="b" d="M187.15,295.67c19.85,6.81,18.07,15.7,20.74,16.29s21.63,21.34,37.92,17.19c12-3.06,25.93-5.95,33.5-8.21,1.31-2.48-2.68-2.75-2.68-2.75s-36.74-27.26-52.74-25.49c-26.08,1.78-44.45-8.29-49.78-5.92-5.17,2.3-8,1.47-20.73,7.7C161,292.83,174.19,291.22,187.15,295.67Z"/><path class="c" d="M193.67,322.93c11.85-2.37,37.92,12.44,51.55,16,25.16-10.13,32.69-15.33,34.09-18-7.57,2.26-21.49,5.15-33.5,8.21-16.29,4.15-35.25-16.59-37.92-17.19s-.89-9.48-20.74-16.29c-13-4.45-26.16-2.84-33.77-1.19l-1.19.59C202.56,296.26,190.7,319.37,193.67,322.93Z"/><path class="d" d="M143.22,342.33c-1.11,2.45-10.22,36.23-9.33,38.67s16.22.22,22.89,1.11c5.46.73,33.54,7.27,45.87,14,8.11-24.78.59-29.95,5.24-32.3-17.19,1.19-45.63-.59-45.63-.59s3-17.78,10.67-30.22-21.34-33.19-21.34-33.19c-2.36,2.89-5.18,9.15-7.6,16.56C144.36,327,144,340.57,143.22,342.33Z"/><path class="e" d="M124.93,390.48c-1.19,12.45,17.18,5.93,22.51,4.74s41.23-2.66,55.12,1.19l.09-.3c-12.33-6.73-40.41-13.27-45.87-14-6.67-.89-22,1.33-22.89-1.11s8.22-36.22,9.33-38.67c.8-1.76,1.14-15.29.77-26-3,9.33-5.43,20.49-5.43,29.07C138.56,345.44,126.11,378,124.93,390.48Z"/><path class="e" d="M425,304.31c.62.08-.4.68-3.75,2-17.78,7.11-33.7,18.72-40.22,21.68-4.09,1.86-22.42,22.46-37.28,39.32,13.74-11.1,28.53-22.92,31.69-24.88,6.21-3.85,57.33-39.36,72.52-42.14C455.75,298.88,434.22,302.68,425,304.31Z"/><path class="a" d="M280.77,254.67c-14.28,4.24-23.75,4.39-34.25,2.78-2.47.64-5,1.24-7.49,1.76,10.22,4.24,20.18,13.46,20.18,13.46s-1.24,11.71,2,16.94,28.9,23.67,28.9,23.67l5.73-4.49s-8-27.4-8-28.9,42.86-14.95,46.84-15.2,28.66-.24,31.4,1.25c3-5.23,7-26.41,5-34.88l-1.68.28c-5.67,3.49-17.13,10.74-23.72,11.47C337.54,243.71,299.36,249.14,280.77,254.67Z"/><path class="f" d="M246.52,257.45c10.5,1.61,20,1.46,34.25-2.78,18.59-5.53,56.77-11,64.91-11.86,6.59-.73,18.05-8,23.72-11.47-12.22,2.06-48.22,7.92-64.1,10.18C282.2,244.82,265.12,252.59,246.52,257.45Z"/><path class="f" d="M223.9,252.46c-.41-7.09.61-12.26.37-15.49-.43-15.87-9.88-25.58-28.26-25.58-10.71,0-20,6.78-24.74,16.74,0,10.69,1.75,22,3.49,24.81,2.35,3.85.86,21,10.05,22.25s16.69-.43,19.68,1.71c2.45,1.75,10.62,4.36,13.52,5.72,1.92-2.28,3.8-6.73,3-14.75-.28-1.54,2-2.38,3.5-3.22S224.32,259.74,223.9,252.46Z"/><path class="a" d="M184.81,275.19c-9.19-1.29-7.7-18.4-10.05-22.25-1.74-2.85-3.48-14.12-3.49-24.81a35.26,35.26,0,0,0-.27,29.15,26.85,26.85,0,0,1,1.76,5.16,104.63,104.63,0,0,0,2.51,10.2c.56.7,2,10.09,21.44,10.37,4.49.14,16.82,2.24,18.78,1.54a6.42,6.42,0,0,0,2.52-1.93c-2.9-1.36-11.07-4-13.52-5.72C201.5,274.76,194,276.47,184.81,275.19Z"/><path class="e" d="M257.05,571.79c-2.48-.66-7.94,3.41-12.34,6.36a55.91,55.91,0,0,1-5.53,8.19c-3.49,4.07,5.07,6.37,13.38,13.17,6.76,5.54,12.58,5.29,15.22,5.2s7.81-2.69,11.73-4.84a12.37,12.37,0,0,0,6.14-8.16l.45-2a12.15,12.15,0,0,0-1-8.19l-4.68-9.19C272.91,568.11,261.21,572.9,257.05,571.79Z"/><path class="f" d="M425,304.31c-2.66-.35-35.53,9-42.27,10.91-8.29,2.37-52.42,22-64.27,29.15-9.22,5.53-30.07,17.14-44.17,56.44-4,11.25-5.92,20.92-11.85,37.67-13.36,37.69-4.4,21.25-9.16,52.89s-8.31,71.26-13.94,84.8c-2.93,7.06.61,5.19,5.4,2,4.4-2.95,9.86-7,12.34-6.36,4.16,1.11,15.86-3.68,23.34.55a11.19,11.19,0,0,1,4.59,5c-1.34-11,1-88.25,3.82-99.2s14.64-55.21,18.79-60.55,9.93-21.78,17-28.89c2.65-2.65,10.25-11.35,19.09-21.37C358.58,350.47,376.91,329.87,381,328c6.52-3,22.44-14.57,40.22-21.68C424.57,305,425.59,304.39,425,304.31Z"/><path class="g" d="M517.09,226.75c-7-4.66-10.87,6.22-10.87,6.22l-16.55,18c.34,2.11-8,12.8-14.95,23.33a100.88,100.88,0,0,0-7,11.94c6.59-2,13.5-5.13,15.54-3.6,3.11,2.33,16.32-1.16,15.16-7.77s13.21-14.66,18.64-18.94C521.37,252.4,524.09,231.42,517.09,226.75Z"/><path class="b" d="M480.81,254.79a206.49,206.49,0,0,1-38.81,9c-35.22,4.66-73.73,13.52-92.44,22.78-21.34,10.55-44.67,19.88-54.89,28.33-17.77,14.68-34.48,35.15-48.11,55a16.81,16.81,0,0,0-1.53,2.77c2.27,8.58,5.84,19.62,9,17.22,4.62-3.47,12.34-19.66,22-30.07s37-42.41,118-61.69c8-1.14,14.86-.26,17.74,1.13,7.18-.89,14.49-1.75,21.54-2.74a54.05,54.05,0,0,1,7.76-.55c11.26.3,24.3,7.41,24.6-3a18.64,18.64,0,0,1,2.08-6.8,100.88,100.88,0,0,1,7-11.94c6.95-10.53,15.29-21.22,14.95-23.33h0C488.77,251.69,485.61,253.12,480.81,254.79Z"/><path class="g" d="M394,298.12c-81,19.28-108.35,51.28-118,61.69s-17.35,26.6-22,30.07c-3.2,2.4-6.77-8.64-9-17.22-6.18,13.89,1.37,40.53,8.39,57.08,2.17-6.47,3.74-11.88,5.15-16.76,1.57-5.4,3-10.5,5-16,15.1-42.07,38.34-56,48.27-61.88l.74-.45c12.61-7.57,57.49-28.12,67-30.33,9.19-2.14,20.5-3.63,32.18-5.07C408.89,297.86,402,297,394,298.12Z"/></svg>