<svg xmlns="http://www.w3.org/2000/svg" width="90.11mm" height="94.24mm" viewBox="0 0 255.42 267.13"><defs><style>.a{fill:#fff;}</style></defs><title>PerfilIcono_</title><path class="a" d="M179,158.62H76.44A76.52,76.52,0,0,0,0,235.05v22.08a10,10,0,0,0,20,0V235.05a56.5,56.5,0,0,1,56.44-56.43H87.68c.18.26.38.52.59.78L124.16,222l-19.52,28.7a10,10,0,0,0,16.54,11.25l56.63-83.28H179a56.5,56.5,0,0,1,56.44,56.43v20.27a10,10,0,0,0,20,0V235.05A76.52,76.52,0,0,0,179,158.62Zm-43.15,46.15-22.05-26.15h39.84Z"/><path class="a" d="M129.38,138.54A69.27,69.27,0,1,0,60.11,69.27,69.34,69.34,0,0,0,129.38,138.54Zm0-118.54A49.27,49.27,0,1,1,80.11,69.27,49.32,49.32,0,0,1,129.38,20Z"/></svg>