<svg xmlns="http://www.w3.org/2000/svg" width="77.49mm" height="124.98mm" viewBox="0 0 219.67 354.27"><defs><style>.a{fill:#fff;}</style></defs><title>AdministracionIcono_</title><path class="a" d="M12.5,233.27A12.5,12.5,0,0,0,0,245.77v96a12.5,12.5,0,0,0,25,0v-96A12.5,12.5,0,0,0,12.5,233.27Z"/><path class="a" d="M207.17,0a12.5,12.5,0,0,0-12.5,12.5V341.77a12.5,12.5,0,0,0,25,0V12.5A12.5,12.5,0,0,0,207.17,0Z"/><path class="a" d="M109.83,129.33a12.5,12.5,0,0,0-12.5,12.5V341.77a12.5,12.5,0,0,0,25,0V141.83A12.5,12.5,0,0,0,109.83,129.33Z"/></svg>