<svg xmlns="http://www.w3.org/2000/svg" width="109.54mm" height="108.02mm" viewBox="0 0 310.52 306.2"><defs><style>.a{fill:#fff;}</style></defs><title>AgendaIcono_</title><path class="a" d="M208.41,145.65h-22a10,10,0,0,0,0,20h22a10,10,0,0,0,0-20Z"/><path class="a" d="M164.41,145.65h-22a10,10,0,0,0,0,20h22a10,10,0,0,0,0-20Z"/><path class="a" d="M76.41,145.65h-22a10,10,0,0,0,0,20h22a10,10,0,0,0,0-20Z"/><path class="a" d="M252.41,145.65h-22a10,10,0,0,0,0,20h22a10,10,0,1,0,0-20Z"/><path class="a" d="M120.41,145.65h-22a10,10,0,0,0,0,20h22a10,10,0,0,0,0-20Z"/><path class="a" d="M164.41,184.42h-22a10,10,0,0,0,0,20h22a10,10,0,0,0,0-20Z"/><path class="a" d="M120.41,184.42h-22a10,10,0,0,0,0,20h22a10,10,0,0,0,0-20Z"/><path class="a" d="M76.41,184.42h-22a10,10,0,0,0,0,20h22a10,10,0,0,0,0-20Z"/><path class="a" d="M252.41,184.42h-22a10,10,0,0,0,0,20h22a10,10,0,1,0,0-20Z"/><path class="a" d="M208.41,184.42h-22a10,10,0,0,0,0,20h22a10,10,0,0,0,0-20Z"/><path class="a" d="M208.41,223.18h-22a10,10,0,0,0,0,20h22a10,10,0,1,0,0-20Z"/><path class="a" d="M76.41,223.18h-22a10,10,0,0,0,0,20h22a10,10,0,1,0,0-20Z"/><path class="a" d="M120.41,223.18h-22a10,10,0,0,0,0,20h22a10,10,0,1,0,0-20Z"/><path class="a" d="M164.41,223.18h-22a10,10,0,0,0,0,20h22a10,10,0,1,0,0-20Z"/><path class="a" d="M252.41,223.18h-22a10,10,0,0,0,0,20h22a10,10,0,1,0,0-20Z"/><path class="a" d="M198.35,94.89a5,5,0,0,0-10-.25,28.86,28.86,0,1,1-29-29.61,5,5,0,0,0,0-10h0a38.87,38.87,0,1,0,39,39.86Z"/><path class="a" d="M159.85,68.26a5,5,0,0,0-5,5V94.59a5,5,0,0,0,5,5,5.16,5.16,0,0,0,.89-.09h12.87a5,5,0,0,0,0-10h-8.76V73.26A5,5,0,0,0,159.85,68.26Z"/><path class="a" d="M271.52,16.76h-42.4V12.5a12.5,12.5,0,0,0-25,0v4.26H117.28V12.5a12.5,12.5,0,0,0-25,0v4.26H39a39,39,0,0,0-39,39V267.2a39,39,0,0,0,39,39H271.52a39,39,0,0,0,39-39V55.76A39,39,0,0,0,271.52,16.76Zm19,250.44a19,19,0,0,1-19,19H39a19,19,0,0,1-19-19V55.76a19,19,0,0,1,19-19H92.3a12.49,12.49,0,0,0,25,0h86.88a12.49,12.49,0,0,0,25,0h42.42a19,19,0,0,1,19,19Z"/></svg>