<svg xmlns="http://www.w3.org/2000/svg" width="95.96mm" height="111.08mm" viewBox="0 0 272.02 314.87"><defs><style>.a{fill:#fff;}</style></defs><title>AlertasIcono_</title><path class="a" d="M255,251.11H17A17,17,0,0,1,3,224.49c.18-.27.38-.52.58-.77,12.7-15.14,34.08-43.13,37.39-53.79,3.74-12.08,1.74-51.57-.4-73.63,0-.32-.05-.64-.05-1a95.34,95.34,0,0,1,190.67,0c0,.31,0,.63-.05.94-2,21.11-3.83,58.91-.37,70.52,3.37,11.29,25.05,41.1,37.93,57.25a8,8,0,0,1,.55.75A17,17,0,0,1,255,251.11Zm-231.62-20H248.82c-9.86-12.74-32.63-43.19-37.23-58.61-5.57-18.67-1.15-69.71-.41-77.62a75.34,75.34,0,0,0-150.67,0c.79,8.25,5.57,61.56-.45,81C55.51,190.54,33.34,218.88,23.4,231.11Z"/><path class="a" d="M141.71,314.87a38.92,38.92,0,0,1-38.86-38.75,10,10,0,0,1,10-10h0a10,10,0,0,1,10,10,18.86,18.86,0,0,0,37.71,0,10,10,0,0,1,10-10h0a10,10,0,0,1,10,10A38.92,38.92,0,0,1,141.71,314.87Z"/></svg>