<svg xmlns="http://www.w3.org/2000/svg" width="86.59mm" height="68.42mm" viewBox="0 0 245.44 193.95"><defs><style>.a{fill:#fff;}</style></defs><title>AnalisisIcono_</title><path class="a" d="M224,49.29a10,10,0,0,0,9.91,10.09H234a10,10,0,0,0,10-9.91l.35-39.38a1.47,1.47,0,0,0,0-.21c0-.1,0-.21,0-.32s0-.19,0-.29l0-.39c0-.11,0-.22-.05-.32a.49.49,0,0,0,0-.12l0-.15c0-.13-.05-.26-.07-.39L244,7.58c0-.09,0-.18-.07-.28s-.07-.22-.1-.34-.07-.21-.11-.32l-.11-.29-.12-.29a2.92,2.92,0,0,0-.14-.31l-.15-.31-.13-.25-.18-.3-.18-.3-.15-.23-.2-.28-.21-.28L242,3.57l-.22-.25-.22-.24-.25-.24-.14-.15-.09-.08-.21-.18-.31-.25L240.3,2l-.17-.12-.35-.24-.31-.19-.14-.09-.39-.2L238.61,1l-.14-.07-.42-.17-.33-.13-.17-.06L237.12.4l-.31-.09-.22,0-.41-.08a2.84,2.84,0,0,0-.31-.06l-.27,0-.39,0-.3,0h-1l-.34,0-.39,0-.27,0h-.13L190.36,6.83a10,10,0,0,0,1.55,19.88,10.61,10.61,0,0,0,1.58-.12l13.69-2.17-65.24,69.8L99.94,63A10,10,0,0,0,87,63.85L3.05,145A10,10,0,1,0,17,159.41L94.83,84.13l42.35,31.47a10,10,0,0,0,13.27-1.2l73.66-78.81Z"/><path class="a" d="M231.64,125.61a.48.48,0,0,0-.26-.31L223,121.08a.5.5,0,0,0-.65.18l-38,60.81a.51.51,0,0,0-.06.4.5.5,0,0,0,.26.31l8.39,4.22a.44.44,0,0,0,.22.05.51.51,0,0,0,.43-.23l38-60.81A.47.47,0,0,0,231.64,125.61Z"/><path class="a" d="M203.83,145.47a16.12,16.12,0,0,0,4.63-11.82v-4.11a16.29,16.29,0,0,0-4.63-11.87c-3.07-3.13-7.53-4.72-13.23-4.72s-10,1.59-13.13,4.72a16.33,16.33,0,0,0-4.63,11.87v4.11a16.12,16.12,0,0,0,4.66,11.79c3.09,3.11,7.54,4.69,13.2,4.69S200.76,148.56,203.83,145.47Zm-8-11.82a6.36,6.36,0,0,1-1.36,4.15,4.59,4.59,0,0,1-3.81,1.6,4.78,4.78,0,0,1-3.94-1.61,6.22,6.22,0,0,1-1.38-4.14v-4.11a6.46,6.46,0,0,1,1.39-4.2,4.58,4.58,0,0,1,3.83-1.66,4.64,4.64,0,0,1,3.88,1.66,6.46,6.46,0,0,1,1.39,4.2Z"/><path class="a" d="M240.84,161.46c-3.06-3.11-7.51-4.69-13.21-4.69s-10.07,1.59-13.18,4.72a16.14,16.14,0,0,0-4.69,11.81v4.12a16.08,16.08,0,0,0,4.72,11.84c3.13,3.11,7.59,4.69,13.26,4.69s10-1.57,13.1-4.67a16.25,16.25,0,0,0,4.6-11.86V173.3A16.32,16.32,0,0,0,240.84,161.46ZM222.36,173.3a6.41,6.41,0,0,1,1.38-4.15,5.36,5.36,0,0,1,7.75,0,6.28,6.28,0,0,1,1.41,4.14v4.12a7.53,7.53,0,0,1-1.08,4.36c-.68,1-2.06,1.44-4.08,1.44a4.91,4.91,0,0,1-3.8-1.71,5.77,5.77,0,0,1-1.58-4.09Z"/></svg>