<svg xmlns="http://www.w3.org/2000/svg" width="114.84mm" height="94.24mm" viewBox="0 0 325.54 267.13"><defs><style>.a{fill:#fff;}</style></defs><title>EstudiantesIcono_</title><path class="a" d="M124.85,138.4a69.27,69.27,0,1,0-64.6-64.6A69.35,69.35,0,0,0,124.85,138.4ZM80.31,64.77a49.28,49.28,0,1,1,53.57,53.57A49.38,49.38,0,0,1,80.31,64.77Z"/><path class="a" d="M304.11,182.09a76.07,76.07,0,0,0-51.91-23.41,10,10,0,0,0-10.39,10.61,10.19,10.19,0,0,0,9.84,9.38c29.74,1.34,53.89,26.58,53.89,56.38v21.09a10.22,10.22,0,0,0,8.52,10.21,10,10,0,0,0,11.48-9.9v-21.4A76,76,0,0,0,304.11,182.09Z"/><path class="a" d="M205.23,20.33a49.28,49.28,0,0,1,4.41,97.17,10,10,0,0,0,2,19.79,10.34,10.34,0,0,0,2-.21A69.28,69.28,0,0,0,207.52.46a10,10,0,1,0-2.29,19.87Z"/><path class="a" d="M179,158.61H76.44A76.44,76.44,0,0,0,0,235.05v21.76A10.19,10.19,0,0,0,8.52,267,10,10,0,0,0,20,257.13V235.05a56.44,56.44,0,0,1,56.44-56.44H87.68a8.87,8.87,0,0,0,.59.78L124.15,222l-19.36,28.47a10.16,10.16,0,0,0,1.14,13,10,10,0,0,0,15.25-1.55l56.63-83.28H179a56.44,56.44,0,0,1,56.44,56.44v20a10.21,10.21,0,0,0,8.51,10.21,10,10,0,0,0,11.49-9.9V235.05A76.44,76.44,0,0,0,179,158.61Zm-43.15,46.16-22.06-26.16h39.85Z"/></svg>