<svg xmlns="http://www.w3.org/2000/svg" width="88.18mm" height="107.39mm" viewBox="0 0 249.96 304.42"><defs><style>.a{fill:#fff;}</style></defs><title>EventosIcono_</title><path class="a" d="M120.64,157.16c-40.39,0-73.25,33-73.25,73.63s32.86,73.63,73.25,73.63,73.25-33,73.25-73.63S161,157.16,120.64,157.16Zm0,127.26c-29.36,0-53.25-24.06-53.25-53.63s23.89-53.63,53.25-53.63,53.25,24.06,53.25,53.63S150,284.42,120.64,284.42Z"/><path class="a" d="M249.05,3.91A7.51,7.51,0,0,0,242.46,0H195.53a7.5,7.5,0,0,0-6.3,3.43L125,103,60.73,3.43A7.5,7.5,0,0,0,54.43,0H7.5A7.5,7.5,0,0,0,1.2,11.57l88,136.31a7.49,7.49,0,0,0,6.3,3.43h59a7.49,7.49,0,0,0,6.3-3.43l88-136.31A7.52,7.52,0,0,0,249.05,3.91ZM99.58,136.31,21.27,15H50.34l68.34,105.85,10,15.46Zm50.8,0h-3.87l-6.82-10.57-5.78-8.95L199.62,15h29.07Z"/></svg>