<svg xmlns="http://www.w3.org/2000/svg" width="81.62mm" height="95.85mm" viewBox="0 0 231.36 271.7"><defs><style>.a{fill:#fff;}</style></defs><title>SalirIcono_</title><path class="a" d="M169.78,27v82h20V27a27,27,0,0,0-27-27H27A27,27,0,0,0,0,27V271.7H20V27a7.1,7.1,0,0,1,7-7H162.78A7.09,7.09,0,0,1,169.78,27Z"/><rect class="a" x="169.78" y="161.46" width="20" height="110.24"/><path class="a" d="M221.36,126.09H110.7l23.63-20.43a10,10,0,1,0-13.07-15.13l-43.62,37.7a10,10,0,0,0-3.46,7.66v.2c0,.08,0,.15,0,.23,0,.24,0,.48,0,.72s0,.32.06.48,0,.32.08.48a4.9,4.9,0,0,0,.13.55c0,.13.06.26.1.39s.12.36.18.54.09.25.14.38l.21.47c.07.14.13.29.21.42s.14.26.22.39.18.31.28.46.15.21.23.32a5.2,5.2,0,0,0,.35.47,3.33,3.33,0,0,0,.25.28c.13.15.25.3.39.44l.34.31.37.34c.19.16.38.3.58.44l.18.14,0,0,0,0,47.45,32.46a10,10,0,0,0,13.9-2.6,10,10,0,0,0-2.61-13.9L116.5,146.09H221.36a10,10,0,0,0,0-20Z"/></svg>