<svg xmlns="http://www.w3.org/2000/svg" width="85.74mm" height="94.42mm" viewBox="0 0 243.06 267.66"><defs><style>.a{fill:#fff;}</style></defs><title>TesoreriaIcono_</title><path class="a" d="M243,63.44h-1a29.39,29.39,0,0,0,1-5.69c.06-.79.09-1.52.09-2.21C243.06,24.4,194.84,0,133.29,0S23.53,24.4,23.53,55.54V82.18C8.74,91.64,0,103.67,0,116.93v41H.94C3.5,168,11.27,177.36,23.45,185.14v34.39h.94c3.3,13.05,15.3,24.87,34.32,33.65,20.22,9.34,46.68,14.48,74.5,14.48s54.27-5.14,74.5-14.48c19-8.78,31-20.6,34.32-33.65h.87v-6.11c0-.43.06-.87.06-1.3,0-.64,0-1.3-.07-2V186.44h-1a30.15,30.15,0,0,0,1-5.69c.06-.79.09-1.51.09-2.21,0-13.25-8.74-25.28-23.52-34.74v-19h-1c0-.14.07-.27.1-.4,12.8-7.92,21-17.51,23.58-27.9H243V90.67l0-.25c0-.44.06-.87.06-1.31,0-.63,0-1.29-.08-2ZM23.53,94.4v2.13h.94c3.31,13,15.3,24.87,34.33,33.65,2.77,1.28,5.67,2.48,8.67,3.6a154.72,154.72,0,0,0,17,5.22,205.74,205.74,0,0,0,48.77,5.66A205.43,205.43,0,0,0,182,139,155.75,155.75,0,0,0,199,133.81q2.33-.87,4.58-1.8c-.72.89-1.51,1.77-2.35,2.65a47.44,47.44,0,0,1-3.54,3.32,59.14,59.14,0,0,1-5.46,4.14c-18.68,12.66-49.43,20.36-82.5,20.36-21.61,0-42.23-3.29-59.14-9.1q-5.76-2-10.9-4.34A76.9,76.9,0,0,1,21.8,138c-5.38-4.58-11.8-12-11.8-21C10,108.8,15,101.09,23.53,94.4Zm.37,79c-8.09-6.22-13.06-13.37-13.8-20.95l-.1-1.06V140.45a56.54,56.54,0,0,0,5.31,5.14,83.38,83.38,0,0,0,16.86,10.87c3,1.51,6.22,2.92,9.57,4.24,19.06,7.49,43,11.78,68,11.78,38.14,0,73.74-10,93.43-26,.34-.28.69-.55,1-.84a56.25,56.25,0,0,0,5.24-5.07V149a5.17,5.17,0,0,1,0,.54c0,.33,0,.65,0,.93s0,.41,0,.61l-.07,1.33c-2.35,24-47,43.61-99.66,43.61-30.2,0-57.8-6.45-76.27-16.5A73.31,73.31,0,0,1,23.9,173.39Zm209,39.33-.07,1.33c-2.35,24-47.06,43.61-99.66,43.61S35.9,238.1,33.55,214.05l-.1-1.06V202.06a56.65,56.65,0,0,0,5.31,5.15c19.45,16.58,55.64,26.88,94.45,26.88s75-10.3,94.45-26.88a57.6,57.6,0,0,0,5.24-5.08v8.51c0,.55.06,1,.06,1.48C233,212.32,233,212.52,232.94,212.72Zm-14.36-54.8h.87V156C228,162.71,233,170.42,233,178.54c0,.45,0,.93-.06,1.47-.51,6.79-4.46,13.38-11.74,19.58-17.73,15.11-51.43,24.5-88,24.5s-70.24-9.39-88-24.5a43.63,43.63,0,0,1-6.13-6.33c19.67,8.27,44.56,12.79,70.65,12.79,27.82,0,54.28-5.14,74.5-14.48C203.28,182.79,215.28,171,218.58,157.92ZM233,89.72,233,91.05c-.74,7.6-5.72,14.75-13.84,21a72.35,72.35,0,0,1-9.64,6.18,123.49,123.49,0,0,1-27.32,10.42,184.26,184.26,0,0,1-30.42,5.2c-6,.53-12.15.83-18.44.83s-12.55-.29-18.6-.83a184.54,184.54,0,0,1-30.36-5.21C55.47,121,35.2,107,33.64,91.05L33.53,90V79.06a56.54,56.54,0,0,0,5.31,5.14l.82.68c19.64,16.18,55.36,26.2,93.63,26.2,25.07,0,49-4.3,68.12-11.81q5-2,9.55-4.24A82.62,82.62,0,0,0,227.74,84.2,55,55,0,0,0,233,79.13v8.14l0,.37c0,.55.06,1,.06,1.47A6,6,0,0,1,233,89.72ZM233,57c-.51,6.79-4.46,13.37-11.74,19.58a77.64,77.64,0,0,1-17.81,11Q198.33,90,192.6,91.94c-16.94,5.84-37.63,9.14-59.31,9.14-33.21,0-64.08-7.75-82.74-20.52a62.11,62.11,0,0,1-5.22-4,47.6,47.6,0,0,1-3.7-3.51c-4.24-4.48-8.1-10.49-8.1-17.54C33.53,30.86,79.22,10,133.29,10s99.77,20.86,99.77,45.54C233.06,56,233,56.47,233,57Z"/><path class="a" d="M173.83,57.46q-3.41-4.73-14.07-8.56l-.35-.06-10.08,7q5.78,2.13,7.21,4.06c1,1.3.64,2.5-1,3.61a9.34,9.34,0,0,1-6,1.56A26.14,26.14,0,0,1,142,63.4q-3.87-1.42-5-3c-.78-1.08-1.06-2.77-.85-5.09q2.76-6.48,0-11.24t-13.7-8.81a55.08,55.08,0,0,0-19.73-3.63,34.88,34.88,0,0,0-16.46,3.85l-11.71-4.3-4.83,3.4,11.71,4.29q-5.13,4.68-2.58,9.82t15.33,9.65l.41.09,10-7Q97.9,49,96.73,46.74c-.77-1.48-.21-2.89,1.7-4.22a9.77,9.77,0,0,1,6.07-1.69,23.74,23.74,0,0,1,7.56,1.56q4.64,1.7,5.88,3.41c.82,1.13,1,2.79.55,5q-2.4,6.85,0,11.33t13.36,8.49a54.59,54.59,0,0,0,19.68,3.47,35.3,35.3,0,0,0,16.79-4l12.13,4.45,4.82-3.33L173,66.67Q177.25,62.2,173.83,57.46Z"/></svg>