<svg xmlns="http://www.w3.org/2000/svg" width="109.49mm" height="115.54mm" viewBox="0 0 310.37 327.53"><defs><style>.a{fill:#fff;}</style></defs><title>TiendaIcono_</title><path class="a" d="M255.8,117.23a7.39,7.39,0,0,0-7.39,7.39V312.75H59.94L183.78,47.62h26.79a7.39,7.39,0,1,0,0-14.78H190.68l.55-1.18A22.25,22.25,0,0,0,171.07,0H81.25A22,22,0,0,0,62,11.11a22,22,0,0,0-.3,21.73H11.83A11.84,11.84,0,0,0,0,44.67v271a11.84,11.84,0,0,0,11.83,11.83H251.36a11.85,11.85,0,0,0,11.83-11.83V124.62A7.39,7.39,0,0,0,255.8,117.23Zm-181-98.72a7.34,7.34,0,0,1,6.46-3.73h89.82a7.47,7.47,0,0,1,6.77,10.63l-46.35,99.23L74.78,26A7.32,7.32,0,0,1,74.79,18.51Zm-60,29.11h55.4L123.85,141,43.62,312.75H14.78Z"/><path class="a" d="M193.41,175.13a41.22,41.22,0,0,1-1.41-4.38q-.88-4.38-2.22-8.76c-.9-2.92-1.78-5.84-2.95-8.76a.82.82,0,0,0-.44-.44.79.79,0,0,0-1,.44c-1.17,2.92-2,5.84-3,8.76s-1.62,5.84-2.21,8.76a41.22,41.22,0,0,1-1.41,4.38,7.13,7.13,0,0,0-.07,4.38,14.89,14.89,0,0,0,2.17,4.38,17.65,17.65,0,0,0,4.48,4.38,1.33,1.33,0,0,0,1.48,0,17.65,17.65,0,0,0,4.48-4.38,14.89,14.89,0,0,0,2.17-4.38A7.13,7.13,0,0,0,193.41,175.13Z"/><path class="a" d="M191.31,217.17a17.65,17.65,0,0,0-4.48-4.38,1.33,1.33,0,0,0-1.48,0,17.65,17.65,0,0,0-4.48,4.38,14.89,14.89,0,0,0-2.17,4.38,7.13,7.13,0,0,0,.07,4.38,41.22,41.22,0,0,1,1.41,4.38q.88,4.38,2.21,8.76c.91,2.92,1.79,5.84,3,8.76a.79.79,0,0,0,.44.44.8.8,0,0,0,1-.44c1.17-2.92,2-5.84,2.95-8.76s1.63-5.84,2.22-8.76a41.22,41.22,0,0,1,1.41-4.38,7.13,7.13,0,0,0,.07-4.38A14.89,14.89,0,0,0,191.31,217.17Z"/><path class="a" d="M169.45,195.31a14.89,14.89,0,0,0-4.38-2.17,7.13,7.13,0,0,0-4.38.07,43.64,43.64,0,0,1-4.38,1.41q-4.38.88-8.76,2.21c-2.92.91-5.84,1.79-8.76,3a.8.8,0,0,0,0,1.48c2.92,1.17,5.84,2,8.76,2.95s5.84,1.62,8.76,2.22a39.05,39.05,0,0,1,4.38,1.41,7.13,7.13,0,0,0,4.38.07,14.89,14.89,0,0,0,4.38-2.17,17.65,17.65,0,0,0,4.38-4.48,1.33,1.33,0,0,0,0-1.48A17.65,17.65,0,0,0,169.45,195.31Z"/><path class="a" d="M202.73,205.75a14.89,14.89,0,0,0,4.38,2.17,7.13,7.13,0,0,0,4.38-.07,39.05,39.05,0,0,1,4.38-1.41c2.92-.6,5.84-1.33,8.76-2.22s5.84-1.78,8.76-2.95a.81.81,0,0,0,.44-.45.79.79,0,0,0-.44-1c-2.92-1.17-5.84-2-8.76-3s-5.84-1.62-8.76-2.21a43.64,43.64,0,0,1-4.38-1.41,7.13,7.13,0,0,0-4.38-.07,14.89,14.89,0,0,0-4.38,2.17,17.65,17.65,0,0,0-4.38,4.48,1.33,1.33,0,0,0,0,1.48A17.65,17.65,0,0,0,202.73,205.75Z"/><path class="a" d="M304.83,52.16H266.88l26.51-26.51a4.43,4.43,0,0,0-6.27-6.27L260.61,45.89V7.94a5.55,5.55,0,0,0-11.09,0v38L223,19.38a4.44,4.44,0,1,0-6.28,6.27l26.51,26.51H205.3a5.54,5.54,0,0,0,0,11.08h37.95L216.74,89.75A4.44,4.44,0,0,0,223,96l26.5-26.5v37.94a5.55,5.55,0,1,0,11.09,0V69.52L287.12,96a4.43,4.43,0,0,0,6.27,0,4.44,4.44,0,0,0,0-6.27L266.88,63.24h37.95a5.54,5.54,0,1,0,0-11.08Z"/></svg>